<?xml version="1.0" encoding="UTF-8"?> <svg xmlns="http://www.w3.org/2000/svg" xml:space="preserve" style="enable-background:new 0 0 168.5 205.3" viewBox="0 0 168.5 205.3"><path d="M9.2 71.5c2.6-2.2 4.9-5.7 3.7-8.9-.7-1.9-2.3-3.3-2.9-5.2-2-6.6 9.5-10 10.2-16.9.2-2.4-1-4.9-.3-7.2 1.3-4.3 8.2-4 11-.5 1.1 1.4 1.9 3 3.2 4.2 3.9 3.6 10.2 1.4 15.4 2 8.3 1 14.2 10.9 11.1 18.6 7-1.5 13.6 5.3 14.3 12.3.6 7.1-3.2 13.9-7.9 19.2-11.5 13-35.5 24.4-53.1 18.3-18-6.2-17.4-25.3-4.7-35.9z" style="fill:#f05537"></path><path d="M14.9 124.1c1.5 2.2 2.9 4 3.7 5.2.8 1 1.5 2.1 2.7 2.6 1.2.6 2.5.5 3.8.5 16.7-.8 32.5-4.6 47-12.9 14.8-8.5 5.3-31.7 5.1-42.1 0-1.7-1.9-2.8-3.4-2-14 7.1-29.4 11.1-44.7 15-6.2 1.6-23.8-.1-26.4 6.5-2.2 5.5 6.5 19.1 12.2 27.2z" style="fill:#6c66bd"></path><path d="M6.5 98.3c3.8 8.5 8.5 16.6 13.9 24.2 1.5 2.1 3.1 4.2 4.8 6.3.3.4.8.6 1.3.3.4-.2.6-.9.3-1.3-5.8-7.2-10.8-14.9-15-23.1-1.2-2.3-2.3-4.6-3.4-7-.2-.5-.7-.8-1.2-.6-.5.2-.9.7-.7 1.2zM19.7 96.3c3.7 7.8 7.4 15.7 11.2 23.5 1.1 2.2 2.1 4.4 3.2 6.6.2.5.9.5 1.3.3.5-.3.5-.8.3-1.3-3.7-7.8-7.4-15.7-11.2-23.5-1-2.2-2.1-4.4-3.2-6.6-.2-.5-.9-.5-1.3-.3-.5.3-.5.9-.3 1.3zM33.3 93.7c3.3 7.9 6.3 16 8.8 24.2.7 2.3 1.4 4.6 2.1 7 .3 1.2 2.1.6 1.8-.6-2.3-8.3-5-16.4-8.1-24.5-.9-2.3-1.8-4.5-2.7-6.8-.2-.5-.7-.8-1.2-.6-.5.2-.9.8-.7 1.3zM47.6 91.9c3 7.5 5.2 15.4 6.6 23.4.4 2.3.7 4.6.9 6.8.1.5.4.9 1 .9.5 0 1-.5.9-1-.9-8.2-2.6-16.3-5.2-24.2-.7-2.2-1.5-4.4-2.4-6.5-.2-.5-.7-.8-1.2-.6-.5.2-.8.8-.6 1.2zM59.2 88.8c2 6.9 3.5 14.1 4.3 21.2.2 2.1.4 4.1.5 6.2.1 1.2 2 1.2 1.9-.1-.5-7.4-1.6-14.7-3.3-21.8-.5-2.1-1-4.1-1.6-6.1-.3-1.1-2.1-.6-1.8.6zM70 84.1c2.1 7.4 3.1 15.1 2.8 22.8-.1 2.2-.2 4.4-.5 6.6-.1.5.2 1 .7 1.1.5.1 1.1-.2 1.1-.7 1-7.9.8-15.9-.7-23.8-.4-2.2-.9-4.4-1.6-6.6-.3-1.1-2.1-.5-1.8.6zM10.2 74.7c6.2-3.5 13.5-4.3 20.4-5.4 6.2-.9 12.4-2.1 18-5 2.9-1.6 5.6-3.7 7.6-6.3.3-.4.3-1-.1-1.3-.3-.3-1-.3-1.3.1-3.6 4.8-9.1 7.4-14.7 8.9-6.5 1.8-13.2 2.2-19.8 3.6-3.9.8-7.7 2-11.2 4-.9.4.1 2 1.1 1.4zM20.8 49.2c6.1-.4 13.3-1.1 17.4-6.3.3-.4.3-1-.1-1.3-.3-.3-1-.3-1.3.1-3.8 4.8-10.4 5.3-16.1 5.7-1.2 0-1.1 1.9.1 1.8zM3.7 88.2c.5-1.2 1-2.4 1.6-3.6.1-.2.2-.5.1-.7-.1-.2-.2-.5-.5-.6-.4-.2-1.1-.1-1.3.4-.5 1.2-1 2.4-1.6 3.6-.1.2-.1.5 0 .7.1.2.2.5.5.6.3.2 1 .1 1.2-.4zM10 80.9c.3-.5.6-1.1.8-1.6.1-.2.1-.5.1-.7 0-.1-.1-.2-.2-.3-.1-.1-.2-.2-.3-.2-.2-.1-.5-.2-.7-.1s-.4.2-.6.5c-.3.5-.6 1.1-.8 1.6-.1.2-.1.5-.1.7 0 .1.1.2.2.3.1.1.2.2.3.2.2.1.5.2.7.1s.4-.3.6-.5zM11.3 86c.3-.4.7-.8 1-1.2.2-.2.3-.4.2-.7 0-.1 0-.2-.1-.4 0-.1-.1-.2-.2-.3-.2-.2-.4-.3-.7-.2s-.5.1-.7.3c-.3.4-.7.8-1 1.2-.2.2-.3.4-.2.7 0 .1 0 .2.1.4 0 .1.1.2.2.3.2.2.4.3.7.2s.6-.1.7-.3zM13.9 53.3c-.2.9-.3 1.9-.5 2.8 0 .2 0 .5.1.7.1.2.3.4.6.4.5.1 1-.2 1.1-.7.2-.9.3-1.9.5-2.8 0-.2 0-.5-.1-.7-.1-.2-.3-.4-.6-.4-.5-.1-1.1.2-1.1.7z" style="fill:#3a1e14"></path><path d="M160 144c-8.7-60.1-96.2-64.7-116.6-10-9 24.3 1.9 55.1 25.4 65.9 6 2.8 12.5 4.2 19 5 18 2 37.1-2 51.5-13.1 14.3-11.2 23.3-29.8 20.7-47.8zm-63 20.9c-1.7-.2-3.4-.6-5-1.3-6.2-2.9-9.1-11-6.7-17.4 5.4-14.5 28.5-13.3 30.8 2.6.7 4.8-1.7 9.7-5.5 12.6s-8.8 4-13.6 3.5z" style="fill:#ffd95c"></path><path d="M150.2 158.6c-.2-5.3 4.7-9.9 4.1-15.2-.6-4.8-5.5-8-6.8-12.7-.6-2.2-.4-4.6-.8-6.9-.4-2.3-1.7-4.7-4-5.2-1.5-.3-3 .3-4.5.3-5.6-.1-7.8-7.9-12.9-10-2.7-1.1-5.8-.4-8.6-1.1-4.3-1.1-7.7-5.4-12.1-5-3.6.3-6.2 3.7-9.7 4.6-3.4.9-7-.7-10.5-1.4s-8 .2-8.9 3.7c-.3 1-.2 2.1-.8 2.9-1.5 1.8-4.8-.1-6.8 1.2-.8.5-1.2 1.5-1.7 2.3-3.7 5.8-17.9 2.6-14.8 14.7.4 1.5 1.3 2.8 1.7 4.3 1.3 4.5-1.8 8.8-4.3 12.8-2.4 3.9-4.1 9.7-.6 12.8 1 .9 2.4 1.4 3.5 2.2 6.4 4.7 2 15.8 6.8 22.2 3.9 5.2 11.9 4.7 17.2 8.5 3.1 2.3 5.8 6.3 9.7 5.7 1.6-.3 2.9-1.4 4.4-2.1 5.8-3 12.7-.4 19.1.9 1.6.3 3.2.5 4.7.1 3.2-1 4.8-4.7 7.6-6.5 4.6-3 11.2-.4 16-3 2.7-1.4 4.4-4.5 4.3-7.5-.1-1.4-.4-2.8-.1-4.1.7-2.7 3.8-3.8 5.9-5.6 2.4-2 3.8-5.2 3.5-8.4-.1-1.6-.6-3-.6-4.5zm-39.6 2.8c-3.8 2.9-8.9 4-13.6 3.5-1.7-.2-3.4-.6-5-1.3-6.2-2.9-9.1-11-6.7-17.4 5.4-14.5 28.5-13.3 30.8 2.6.7 4.8-1.7 9.7-5.5 12.6z" style="fill:#f23022"></path><path d="m63 124.7 2.4 3.9c.3.5 1 .7 1.4.4.5-.3.7-.9.4-1.4l-2.4-3.9c-.3-.5-1-.7-1.4-.4-.5.3-.7.9-.4 1.4zM57.8 157.7c1.4-1 2.9-1.9 4.3-2.9.5-.3.7-.9.4-1.4-.3-.5-1-.7-1.4-.4-1.4 1-2.9 1.9-4.3 2.9-.5.3-.7.9-.4 1.4.3.5.9.8 1.4.4zM70.5 141.7l2.4 2.4c.2.2.5.3.8.3s.6-.1.8-.3c.2-.2.3-.5.3-.8s-.1-.6-.3-.8l-2.4-2.4c-.2-.2-.5-.3-.8-.3s-.6.1-.8.3c-.2.2-.3.5-.3.8s.1.6.3.8zM76 161.9c-.3 1.4-.6 2.9-.9 4.3-.1.5.2 1.2.7 1.3.5.1 1.2-.2 1.3-.7.3-1.4.6-2.9.9-4.3.1-.5-.2-1.2-.7-1.3-.5-.2-1.2.1-1.3.7zM70.7 181.4c2.2.3 4.4.1 6.6-.3.5-.1.9-.8.7-1.3-.2-.6-.7-.9-1.3-.7-.3.1-.5.1-.8.2-.1 0-.2 0-.3.1 0 0-.3.1-.2 0-.5.1-1 .1-1.5.1-1 0-2.1 0-3.1-.1-.6-.1-1.1.5-1.1 1.1 0 .5.5.8 1 .9zM98.2 172.3c.9 1.3 1.9 2.6 2.8 3.9.2.2.4.4.6.5.2.1.6 0 .8-.1.4-.3.7-1 .4-1.4-.9-1.3-1.9-2.6-2.8-3.9-.2-.2-.4-.4-.6-.5-.2-.1-.6 0-.8.1-.5.2-.8.9-.4 1.4zM96 190.3c1.6-1.4 3.2-2.9 4.8-4.3.4-.4.4-1.1 0-1.5-.4-.4-1.1-.4-1.5 0-1.6 1.4-3.2 2.9-4.8 4.3-.4.4-.4 1.1 0 1.5.4.4 1 .4 1.5 0zM125.2 179.5c1.8.6 3.5 1.3 5.3 1.9.5.2 1.2-.2 1.3-.7.1-.6-.2-1.1-.7-1.3-1.8-.6-3.5-1.3-5.3-1.9-.5-.2-1.2.2-1.3.7-.2.6.1 1.1.7 1.3zM123.4 155.9c.3 2.1.6 4.2.8 6.3.1.6.4 1.1 1.1 1.1.5 0 1.1-.5 1.1-1.1-.3-2.1-.6-4.2-.8-6.3-.1-.6-.4-1.1-1.1-1.1-.6 0-1.2.5-1.1 1.1zM141.4 157.7l5.4-3.3c.5-.3.7-1 .4-1.4s-.9-.7-1.4-.4l-5.4 3.3c-.5.3-.7 1-.4 1.4s.8.8 1.4.4zM135.7 142.5c.2.1.4.1.6.2.1 0 .2.1.3.1.1 0 .4.1.1 0 .4.1.7.3 1.1.5.4.2.7.4 1 .6.2.1.3.2.5.3.1.1.2.1.2.2l.1.1c-.1-.1-.1-.1 0 0 .2.2.4.3.8.3.3 0 .6-.1.8-.3.4-.4.5-1.1 0-1.5-1.5-1.1-3.1-2-4.8-2.6-.5-.2-1.2.2-1.3.7-.2.6.1 1.2.6 1.4zM128.4 121.2c-.9 1.3-1.4 2.8-1.6 4.4 0 .2.1.6.3.8.2.2.5.3.8.3.3 0 .6-.1.7-.3.2-.2.3-.5.3-.8v.1-.4c0-.1.1-.3.1-.4.1-.3.2-.7.3-1 0-.1.1-.1.1-.2-.1.1-.1.2 0 .1 0 0 0-.1.1-.1.1-.1.1-.3.2-.4.2-.3.3-.6.5-.9.3-.5.1-1.2-.4-1.4-.5-.5-1.1-.3-1.4.2zM109.1 131h4.3c.6 0 1.1-.5 1.1-1.1 0-.6-.5-1.1-1.1-1.1h-4.3c-.6 0-1.1.5-1.1 1.1.1.6.6 1.1 1.1 1.1zM103.4 113.5c-1.3 1.8-2.5 3.5-3.8 5.3-.3.4-.1 1.2.4 1.4.6.3 1.1.1 1.4-.4 1.3-1.8 2.5-3.5 3.8-5.3.3-.4.1-1.2-.4-1.4-.5-.3-1-.1-1.4.4zM80.1 123.4c1 .8 1.9 1.6 2.9 2.4.2.2.4.3.8.3.3 0 .6-.1.8-.3.2-.2.3-.5.3-.8 0-.3-.1-.6-.3-.8-1-.8-1.9-1.6-2.9-2.4-.2-.2-.4-.3-.8-.3-.3 0-.6.1-.8.3-.2.2-.3.5-.3.8 0 .4.1.7.3.8z" style="fill:#3a1e14"></path><path d="M109.1 33.5c-1.6 3-2.6 6.3-2.1 9.6s2.6 6.5 5.8 7.5c4.3 1.4 8.9-1.5 11.9-4.9 2.7-3 4.9-6.5 6.4-10.2 2.5-6.2 1.6-17.1-7.6-16.3-5.7.5-12 9.9-14.4 14.3z" style="fill:#f05537"></path><path d="M126.1 22.5c-1.1-5.5-1.6-11.2-1.3-16.8.1-2.6 1.3-6 3.9-5.7 2.4.3 3 3.5 4.8 5.1 2.6 2.1 6.9.4 9.4 2.6 1.9 1.7 1.6 4.9.1 6.9s-3.9 3.1-6.3 4.1c-3.1 1.3-6.1 2.7-9.2 4M112.2 45.1c-4.4 2.5-8.7 5-13.1 7.5-1.4.8-2.8 1.6-3.6 3-.8 1.3-.7 3.4.6 4.2 1.1.7 2.5.4 3.7 1 2.8 1.4 1.7 6.5 4.5 7.8 1.8.8 3.9-.5 5.8-.4 1.5.1 2.9 1 4.4.8 1.9-.3 3-2.3 3-4.2 0-1.9-.8-3.7-1.3-5.4-.8-2.8-1.1-5.8-.7-8.8.1-1.1.4-2.3-.1-3.4s-1.9-1.8-2.8-1M137.6 104.3c3.3-.5 6.6-1.7 8.9-4.1s3.6-6 2.5-9.2c-1.5-4.3-6.6-6.2-11.1-6.6-4-.3-8.1 0-12 1.1-6.4 1.8-14.6 9.1-8.3 15.9 3.9 4.3 15.1 3.7 20 2.9z" style="fill:#f05537"></path><path d="M118.7 97.3c-3.7 4.2-7.9 8-12.6 11.2-2.1 1.5-5.6 2.6-6.9.3-1.2-2.1 1-4.5 1.1-6.9.1-3.3-3.9-5.8-3.6-9.1.2-2.5 2.9-4.2 5.4-4.2 2.5 0 4.8 1.3 7 2.5 2.9 1.6 5.8 3.3 8.7 4.9M145 94.8c4.6 2 9.3 3.9 13.9 5.9 1.4.6 3 1.2 4.5 1.1 1.6-.2 3.1-1.5 3-3-.1-1.3-1.2-2.3-1.4-3.5-.6-3.1 4.1-5.3 3.5-8.3-.4-1.9-2.8-2.8-3.9-4.4-.9-1.2-1-3-2.1-4-1.4-1.3-3.7-.9-5.2.2s-2.4 2.8-3.6 4.3c-1.8 2.4-4 4.4-6.6 5.8-1 .6-2.1 1.1-2.7 2.1s-.2 2.6.9 2.8" style="fill:#f05537"></path><path d="M102.2 92.8c3.1 1.4 6.3 2.6 9.6 3.4.7.2.9-.9.3-1-3.2-.8-6.3-1.9-9.4-3.3-.6-.3-1.1.6-.5.9zM104.9 99.1h5.6c.7 0 .7-1.1 0-1.1h-5.6c-.7.1-.7 1.1 0 1.1zM105 104.2c2.7-1.1 5.3-2.3 8-3.4.3-.1.3-.5.2-.7-.2-.3-.5-.3-.7-.2-2.7 1.1-5.3 2.3-8 3.4-.3.1-.3.5-.2.7.1.3.4.3.7.2zM151.6 95.4c2.6.8 5.3 1.5 8 2.1.7.1 1-.9.3-1-2.7-.5-5.4-1.2-8-2.1-.7-.2-1 .8-.3 1zM152.9 91.9c2.9 0 5.8-.3 8.6-1 .7-.2.4-1.2-.3-1-2.7.7-5.5 1-8.4.9-.5 0-.5 1 .1 1.1zM154.3 87.7c2.6-.8 5.2-2 7.5-3.6.6-.4 0-1.3-.5-.9-2.2 1.5-4.6 2.7-7.2 3.5-.8.1-.5 1.2.2 1zM118.3 96.5c.5 2.7 3 4.4 5.4 5.1 2.8.9 5.9 1 8.8.7 1.7-.2 3.4-.6 5-1.1.6-.2.4-1.2-.3-1-2.6.9-5.4 1.3-8.1 1.2-2.6-.1-5.5-.5-7.7-2-1.1-.8-1.9-1.9-2.1-3.2-.1-.6-1.1-.3-1 .3zM103.5 55.6c1.8-1.1 3.4-2.3 5-3.7.5-.5-.2-1.2-.8-.8-1.5 1.3-3.1 2.5-4.8 3.5-.5.4 0 1.3.6 1zM107.1 59.5c1.3-2.7 2.7-5.3 4.2-7.8.4-.6-.6-1.1-.9-.5-1.5 2.6-2.9 5.2-4.2 7.8-.3.6.6 1.1.9.5zM113.2 61.9c-.3-2.8-.3-5.7.1-8.5 0-.3-.3-.5-.5-.5-.3 0-.5.2-.5.5-.4 2.8-.4 5.7-.1 8.5 0 .7 1.1.7 1 0zM114.1 47.1c2.7.3 5.4-.6 7.5-2.2 2.2-1.6 3.9-3.9 5.2-6.3.8-1.4 1.5-2.9 2.2-4.3.3-.6-.6-1.2-.9-.5-2.2 4.6-4.7 9.9-9.8 11.8-1.3.5-2.7.7-4.1.5-.8-.2-.8.9-.1 1zM127.3 15.4c.3-2.2.7-4.4 1-6.6 0-.3-.1-.6-.4-.7-.2-.1-.6.1-.7.4-.3 2.2-.7 4.4-1 6.6 0 .3.1.6.4.7.2 0 .6-.1.7-.4zM129.8 17.2c1.2-2.1 2.3-4.2 3.5-6.3.3-.6-.6-1.1-.9-.5-1.2 2.1-2.3 4.2-3.5 6.3-.3.6.6 1.1.9.5zM132.9 18.1c1.8-1.4 3.8-2.8 5.7-4 .6-.4.1-1.3-.5-.9-2.1 1.3-4 2.7-5.9 4.2-.2.2-.2.6 0 .8.2.1.5 0 .7-.1z" style="fill:#3a1e14"></path></svg> 